<?xml version="1.0" encoding="UTF-8" standalone="no" ?>
<!DOCTYPE svg PUBLIC "-//W3C//DTD SVG 1.1//EN" "http://www.w3.org/Graphics/SVG/1.1/DTD/svg11.dtd">
<svg xmlns="http://www.w3.org/2000/svg" xmlns:xlink="http://www.w3.org/1999/xlink" version="1.1" width="1080" height="1080" viewBox="0 0 1080 1080" xml:space="preserve">
<desc>Created with Fabric.js 5.2.4</desc>
<defs>
</defs>
<g transform="matrix(1 0 0 1 540 540)" id="d847530f-69fc-4480-822a-c5343be488eb"  >
<rect style="stroke: none; stroke-width: 1; stroke-dasharray: none; stroke-linecap: butt; stroke-dashoffset: 0; stroke-linejoin: miter; stroke-miterlimit: 4; fill: rgb(255,255,255); fill-rule: nonzero; opacity: 1; visibility: hidden;" vector-effect="non-scaling-stroke"  x="-540" y="-540" rx="0" ry="0" width="1080" height="1080" />
</g>
<g transform="matrix(1 0 0 1 540 540)" id="0d162386-33f5-4d03-8e98-4e8d725b23b0"  >
</g>
<g transform="matrix(1 0 0 1 540 540)" id="32bfbab8-df87-4b07-89fa-0ef5bfa14b29"  >
<path style="stroke: rgb(255,255,255); stroke-width: 0; stroke-dasharray: none; stroke-linecap: butt; stroke-dashoffset: 0; stroke-linejoin: miter; stroke-miterlimit: 4; fill: rgb(255,255,255); fill-rule: nonzero; opacity: 1;" vector-effect="non-scaling-stroke"  transform=" translate(-12, -12)" d="M 19 3 L 5 3 C 3.9 3 3 3.9 3 5 L 3 19 C 3 20.1 3.9 21 5 21 L 19 21 C 20.1 21 21 20.1 21 19 L 21 5 C 21 3.9 20.1 3 19 3 M 11 8 L 9 8 L 9 10 C 9 11.1 8.1 12 7 12 C 8.1 12 9 12.9 9 14 L 9 16 L 11 16 L 11 18 L 9 18 C 7.9 18 7 17.1 7 16 L 7 15 C 7 13.9 6.1 13 5 13 L 5 11 C 6.1 11 7 10.1 7 9 L 7 8 C 7 6.9 7.9 6 9 6 L 11 6 L 11 8 M 19 13 C 17.9 13 17 13.9 17 15 L 17 16 C 17 17.1 16.1 18 15 18 L 13 18 L 13 16 L 15 16 L 15 14 C 15 12.9 15.9 12 17 12 C 15.9 12 15 11.1 15 10 L 15 8 L 13 8 L 13 6 L 15 6 C 16.1 6 17 6.9 17 8 L 17 9 C 17 10.1 17.9 11 19 11 L 19 13 Z" stroke-linecap="round" />
</g>
</svg>